<?xml version="1.0" encoding="utf-8"?>
<!-- Generator: Adobe Illustrator 18.1.0, SVG Export Plug-In . SVG Version: 6.00 Build 0)  -->
<svg version="1.1" id="Слой_1" xmlns="http://www.w3.org/2000/svg" xmlns:xlink="http://www.w3.org/1999/xlink" x="0px" y="0px"
	 viewBox="2.1171422 14.3178978 64.7913208 12.3255558" enable-background="new 2.1171422 14.3178978 64.7913208 12.3255558"
	 xml:space="preserve">
<g>
	<path fill="#333333" d="M12.0612125,16.7156277l0.347662,3.2824116h-0.1392288
		c-0.2363338-2.1001968-1.1822157-3.1571331-3.5742741-3.1571331v7.1066971c0,1.6272564,0,2.4060097,1.501977,2.4060097v0.0973778
		H4.3283944v-0.0973778c1.5022511,0,1.5022511-0.7787533,1.5022511-2.4060097v-7.1066971
		c-2.3923321,0-3.3379407,1.0569363-3.5742743,3.1571331H2.1171422l0.3476622-3.2824116H12.0612125z"/>
	<path fill="#333333" d="M17.7378731,26.4509907v-0.0973778c0.737175,0,0.7508507-0.3755627,0.7508507-1.4880276v-3.4074192
		c0-0.5700455-0.0694771-1.3211708-0.8761292-1.3211708c-0.3337135,0-0.806654,0.1808071-1.223793,0.5424194v4.1861706
		c0,0.8761311,0.0139484,1.4880276,0.7650757,1.4880276v0.0973778h-4.5477839v-0.0973778
		c1.0845642,0,1.2098427-0.2781849,1.2098427-1.7662125v-6.9258919c0-0.9319305-0.1947565-1.3074932-1.3769722-1.0293102
		l-0.027627-0.0973778l4.0053635-1.0708866l-0.0418491,5.0902023c1.3769722-1.1264153,2.2252026-1.5019779,3.0737057-1.5019779
		c1.1264153,0,1.613306,0.6258469,1.613306,2.0443954v3.4908466c0,1.4880276,0.1250057,1.7662125,1.2098427,1.7662125v0.0973778
		H17.7378731z"/>
	<path fill="#333333" d="M25.3060226,22.0005856c0,1.4603996,0.7648029,2.8926258,2.5728645,2.8926258
		c1.0985146,0,1.8496399-0.5284672,2.3365307-1.3348465l0.0834293,0.0415764
		c-0.6537476,1.6548843-1.9054413,2.9484272-3.89431,2.9484272c-2.2667789,0-3.7132301-1.5577774-3.7132301-3.78298
		s1.9193916-3.7132301,4.1861706-3.7132301c2.2946815,0,3.5603237,1.1822147,3.115284,2.9484272H25.3060226z M25.3060226,21.8616295
		h0.7197704c1.0952492,0,1.8781128-0.8450661,1.4320202-1.8453522c-0.1517773-0.3403301-0.4054108-0.5744743-0.8027191-0.5744743
		C25.667635,19.441803,25.319973,20.8881207,25.3060226,21.8616295z"/>
	<path fill="#333333" d="M40.5531273,20.3911324c0.594265-1.3440552,1.7541428-4.1306553-0.6223679-4.1306553v-0.0990448h4.2719879
		v0.0990448c-1.6973877,0-2.7301216,2.4613667-3.4940987,4.1448441l-2.7865982,6.1390877l-3.7767677-7.8648529
		c-0.7920761-1.6692905-1.3579636-2.4190788-2.3765106-2.4190788v-0.0990448h6.0403214v0.0990448
		c-1.3298645,0-1.1882553,1.0892105-0.6507416,2.2916565l2.121666,4.6678867L40.5531273,20.3911324z"/>
	<path fill="#333333" d="M43.6355171,26.5444088V26.445364c1.1031227,0,1.230545-0.2829437,1.230545-1.7964325v-3.3950558
		c0-0.9475994-0.1980896-1.3295879-1.4005318-1.0466442l-0.0281029-0.0990429l4.0455246-1.0892124v5.6299553
		c0,1.5134888,0.2190971,1.7964325,1.3224983,1.7964325v0.0990448H43.6355171z"/>
	<path fill="#333333" d="M54.1325607,26.5444088V26.445364c0.7497902,0,0.7637024-0.3819885,0.7637024-1.5134888v-3.4657211
		c0-0.5797997-0.0706673-1.3437767-0.8911247-1.3437767c-0.3394203,0-0.8204536,0.1838989-1.2447319,0.5516987v4.2577991
		c0,0.8911228,0.0141907,1.5134888,0.7781677,1.5134888v0.0990448h-4.7331238V26.445364
		c1.1031189,0,1.3380661-0.2829437,1.3380661-1.7964325v-3.3950558c0-0.9475994-0.1980858-1.3295879-1.4005318-1.0466442
		l-0.0280991-0.0990429l3.9560242-1.0576954l0.0435562,1.5279121c1.4005318-1.145689,2.2950287-1.5594292,3.1580505-1.5594292
		c1.1456909,0,1.6409111,0.6365566,1.6409111,2.0793781v3.5505772c0,1.5134888,0.1271439,1.7964325,1.230545,1.7964325v0.0990448
		H54.1325607z"/>
	<path fill="#333333" d="M61.8302078,22.0178547c0,1.4853878,0.7778893,2.9421215,2.61689,2.9421215
		c1.1173096,0,1.8812866-0.5375118,2.3765106-1.3576889l0.0848541,0.0422897
		c-0.6649323,1.6831989-1.9380417,2.9988766-3.9609413,2.9988766c-2.3055687,0-3.7767677-1.5844326-3.7767677-3.8477116
		s1.9522324-3.7767658,4.2578011-3.7767658c2.3339424,0,3.6212425,1.202446,3.1685905,2.9988785H61.8302078z M61.8302078,21.8765221
		h0.7371674c1.1316261,0,1.9233856-0.900013,1.4336395-1.9201717c-0.1561241-0.325201-0.4096985-0.5458241-0.7986488-0.5458241
		C62.1980095,19.4105263,61.8443985,20.8863544,61.8302078,21.8765221z"/>
	<path fill="#333333" d="M49.7855415,19.8219337c0.5634537-0.1419601,0.7072601-0.1453304,1.4419708-0.4544125
		c0.2601433-0.1094379,0.4803238-0.2669334,0.6609573-0.5392017c0.2012062-0.3032837,0.2222137-0.612812,0.229908-0.691164
		c0.1157455-1.1790867-0.5179482-2.3096142-1.5273857-2.9030581c-0.68116-0.4004517-1.4865417-0.5608988-2.2764511-0.5412846
		c-0.2787971,0.0069227-0.5607948,0.036273-0.8215714,0.1351166c-0.3188896,0.1208677-0.6112442,0.3444843-0.6670494,0.6944351
		c-0.0435181,0.2729053,0.079155,0.5448904,0.2283173,0.7775316c0.1491661,0.2326412,0.3298531,0.4498558,0.4250374,0.7092991
		c0.168457,0.459156,0.019825,1.0164757-0.3549004,1.3307724c-0.2948608,0.2473087-0.6986542,0.3393116-1.0823326,0.3094025
		c-0.4121284-0.0321255-0.8226204-0.2058811-1.0896797-0.5214138c-0.2000046-0.2363014-0.310688-0.5395565-0.348568-0.8468094
		c-0.1075325-0.8721581,0.3713341-1.7520685,1.0833282-2.2671356c1.7819328-1.2890797,4.7441025-0.6913652,6.0662155,1.0006809
		c1.2439041,1.5919533,1.1083755,4.1268463,0.9928818,8.6839771"/>
</g>
</svg>
