<svg id="Слой_1" xmlns="http://www.w3.org/2000/svg" viewBox="0 0 125 35"><style>.st0{fill:#FFFFFF;}</style><path d="M0 0v35h108.633c.863 0 1.684-.372 2.254-1.02l12.383-14.093c.975-1.11.997-2.767.05-3.902L110.89 1.08C110.32.394 109.476 0 108.586 0H0z"/><path class="st0" d="M19.08 16.773l.162-1.8h-.1l-1.032 1.82-5.8 7.78h-2.223V10.427h2.99v7.62l-.2 1.878h.12l1.09-1.88 5.74-7.618h2.244v14.146h-2.99v-7.8zM33.348 18.733h-5.66v5.84H24.7V10.427h2.99v5.68h5.66v-5.68h2.99v14.146h-2.99v-5.84zM49.86 13.054h-4.487v11.52h-2.99v-11.52h-4.488v-2.627H49.86v2.627zM51.414 10.427h9.115v2.627h-6.124v3.07h5.557v2.63h-5.557v3.19h6.224v2.63h-9.216V10.426zM62.853 10.568c.607-.107 1.28-.192 2.02-.252.742-.06 1.482-.092 2.224-.092.755 0 1.516.058 2.283.172.768.115 1.458.344 2.072.688.613.343 1.115.82 1.505 1.434.39.613.587 1.425.587 2.436 0 .89-.17 1.647-.505 2.273-.338.626-.787 1.135-1.346 1.526-.56.39-1.196.676-1.91.858-.714.184-1.447.274-2.202.274h-.344c-.16 0-.334-.003-.515-.01-.182-.006-.353-.016-.516-.03-.16-.014-.283-.027-.363-.04v4.77h-2.99V10.567zm4.446 2.284c-.284 0-.557.006-.82.02-.263.014-.475.04-.636.08v4.205c.054.013.14.027.263.04s.248.024.383.03l.375.02c.113.008.204.01.273.01.39 0 .78-.026 1.17-.08.392-.054.74-.168 1.042-.344.303-.175.55-.414.738-.717.188-.304.283-.71.283-1.223 0-.43-.087-.778-.262-1.04-.176-.264-.408-.47-.697-.617-.29-.148-.62-.25-.99-.304-.37-.053-.744-.08-1.12-.08zM75.383 10.427h2.99v5.032c.067-.015.182-.032.343-.052.163-.02.34-.037.536-.05.196-.014.398-.027.607-.04.208-.014.392-.02.555-.02.727 0 1.43.067 2.112.2.68.136 1.28.378 1.797.73.52.35.938.82 1.254 1.413.317.595.475 1.342.475 2.244 0 1.617-.556 2.836-1.668 3.658-1.11.822-2.67 1.234-4.677 1.234-.202 0-.475-.004-.82-.01-.343-.007-.716-.025-1.12-.05-.405-.028-.816-.062-1.234-.102-.418-.04-.8-.102-1.15-.182V10.427zm4.466 11.72c.402 0 .79-.033 1.16-.1.37-.067.695-.186.97-.354.277-.17.496-.39.657-.667.163-.277.243-.624.243-1.04 0-.445-.083-.8-.253-1.07-.168-.27-.393-.48-.676-.628-.282-.148-.606-.246-.97-.293-.363-.047-.74-.07-1.13-.07-.11 0-.234.006-.376.02l-.434.04c-.148.014-.283.03-.404.05-.12.02-.21.038-.262.05v3.962c.16.026.373.05.637.07.262.02.542.03.84.03zM87.85 10.427h9.117v2.627h-6.125v3.07h5.56v2.63h-5.56v3.19h6.225v2.63H87.85V10.426zM99.29 10.568c.606-.107 1.28-.192 2.022-.252.74-.06 1.482-.092 2.222-.092.755 0 1.516.058 2.284.172.768.115 1.458.344 2.07.688.614.343 1.116.82 1.507 1.434.39.613.586 1.425.586 2.436 0 .89-.167 1.647-.504 2.273-.337.626-.784 1.135-1.344 1.526-.56.39-1.195.676-1.91.858-.714.184-1.448.274-2.203.274h-.345c-.16 0-.333-.003-.514-.01-.182-.006-.353-.016-.514-.03-.163-.014-.285-.027-.365-.04v4.77h-2.99V10.567zm4.446 2.284c-.283 0-.556.006-.82.02-.26.014-.472.04-.635.08v4.205c.055.013.142.027.264.04s.25.024.385.03l.372.02c.114.008.206.01.273.01.39 0 .78-.026 1.17-.08.392-.054.74-.168 1.042-.344.304-.175.55-.414.74-.717.186-.304.28-.71.28-1.223 0-.43-.087-.778-.262-1.04-.174-.264-.408-.47-.697-.617-.29-.148-.62-.25-.99-.304-.37-.053-.745-.08-1.122-.08z"/></svg>