<svg id="Слой_1" xmlns="http://www.w3.org/2000/svg" viewBox="0 0 125 35"><style>.st0{fill:#FFFFFF;}</style><path class="st0" d="M69.41 13.236c-.29-.148-.62-.25-.99-.304-.37-.053-.744-.08-1.12-.08-.284 0-.462.006-.725.02-.263.013-.54.04-.54.08v4.205c0 .013.045.027.167.04s.2.024.336.03l.35.02c.114.008.193.01.262.01.39 0 .775-.026 1.165-.08.39-.054.735-.168 1.038-.344.303-.175.548-.414.737-.717.187-.304.282-.71.282-1.223 0-.43-.09-.778-.263-1.04-.177-.264-.41-.47-.7-.617zM81.95 18.288c-.282-.148-.606-.246-.97-.293-.363-.047-.74-.07-1.13-.07-.11 0-.234.006-.376.02l-.434.04c-.148.014-.453.03-.574.05-.12.02-.432.038-.432.05v3.962c1 .026.543.05.807.07.262.02.627.03.924.03.403 0 .834-.033 1.204-.1s.715-.186.992-.354c.276-.17.505-.39.666-.667.163-.277.25-.624.25-1.04 0-.445-.082-.8-.25-1.07-.17-.27-.392-.48-.675-.628z"/><path class="st0" d="M123.32 15.985L110.89 1.08C110.32.394 109.476 0 108.586 0H.034v35h108.6c.862 0 1.683-.372 2.253-1.02l12.383-14.093c.975-1.11.997-2.767.05-3.902zM22.034 25h-3v-8.227L19.242 15h-.1l-1.032 2.02-5.8 7.98h-2.276V10h3v8.046L12.876 20h.12l1.092-2.13 5.74-7.87h2.206v15zm14 0h-3v-6h-5v6h-3V10h3v6h5v-6h3v15zm14-12h-5v12h-3V13h-4v-3h12v3zm11 12h-10V10h9v3h-6v3h6v3h-6v3h7v3zm12.005-7.773c-.338.626-.787 1.135-1.346 1.526-.56.39-1.196.734-1.91.916-.714.182-1.447.33-2.202.33h-.344c-.16 0-.334-.06-.515-.068-.182-.006-.258-.045-.42-.06-.162-.013-.27-.055-.27-.068V25h-3V10.568c0-.107 1.19-.192 1.93-.252.743-.06 1.437-.092 2.18-.092.754 0 1.493.058 2.26.172.767.115 1.447.344 2.06.688.614.343 1.11.82 1.5 1.434.39.613.584 1.425.584 2.436 0 .89-.173 1.647-.508 2.273zm11.345 6.315c-1.11.822-2.67 1.234-4.677 1.234-.202 0-.475-.004-.82-.01s-.716-.025-1.12-.05c-.405-.028-.99-.062-1.408-.102-.418-.04-.326-.102-1.326-.182V10h3v5.46c0-.015.35-.032.512-.052.163-.02.426-.037.62-.05.197-.014.442-.027.65-.04.21-.014.415-.02.578-.02.727 0 1.44.067 2.122.2.68.136 1.285.378 1.803.73.52.35.94.82 1.255 1.413.317.595.477 1.342.477 2.244 0 1.617-.555 2.836-1.667 3.658zM97.035 25h-9V10h9v3h-6v3h5v3h-5v3h6v3zm12.44-7.773c-.336.626-.783 1.135-1.343 1.526-.56.39-1.195.734-1.91.916-.714.182-1.448.33-2.203.33h-.345c-.16 0-.333-.06-.514-.068-.182-.006-.476-.045-.638-.06-.162-.013-.488-.055-.488-.068V25h-3V10.568c1-.107 1.408-.192 2.15-.252.74-.06 1.546-.092 2.286-.092.755 0 1.548.058 2.316.172.768.115 1.473.344 2.087.688.613.343 1.123.82 1.514 1.434.39.613.59 1.425.59 2.436 0 .89-.164 1.647-.5 2.273z"/><path class="st0" d="M105.848 13.236c-.29-.148-.62-.25-.99-.304-.37-.053-.745-.08-1.122-.08-.283 0-.68.006-.942.02-.262.013-.76.04-.76.08v4.205c0 .013.265.027.386.04s.312.024.447.03l.404.02c.115.008.222.01.29.01.39 0 .79-.026 1.178-.08.392-.054.743-.168 1.045-.344.305-.175.552-.414.74-.717.188-.304.284-.71.284-1.223 0-.43-.088-.778-.262-1.04-.174-.264-.408-.47-.697-.617z"/></svg>