<svg width="61" height="16" viewBox="0 0 61 16" xmlns="http://www.w3.org/2000/svg"><title>logo sign</title><g fill="none" fill-rule="evenodd"><path d="M2.726 8.808c.074.362.2.688.378.976.178.289.414.52.709.691.294.172.663.258 1.105.258.442 0 .814-.086 1.115-.258.3-.172.54-.402.718-.691.178-.288.304-.614.377-.976a5.714 5.714 0 0 0 0-2.238 2.867 2.867 0 0 0-.377-.976 2.099 2.099 0 0 0-.718-.691c-.301-.178-.673-.267-1.115-.267-.442 0-.81.089-1.105.267a2.123 2.123 0 0 0-.71.69 2.862 2.862 0 0 0-.377.977 5.713 5.713 0 0 0 0 2.238M.35 5.621c.233-.62.565-1.148.995-1.584.43-.436.945-.773 1.547-1.013.601-.24 1.277-.36 2.026-.36.749 0 1.428.12 2.035.36A4.44 4.44 0 0 1 8.51 4.037c.43.436.761.964.995 1.584.233.62.35 1.311.35 2.073 0 .761-.117 1.449-.35 2.063a4.472 4.472 0 0 1-.995 1.574c-.43.436-.949.771-1.557 1.004-.607.234-1.286.35-2.035.35-.75 0-1.425-.116-2.026-.35a4.342 4.342 0 0 1-1.547-1.004A4.469 4.469 0 0 1 .35 9.757C.116 9.143 0 8.455 0 7.694 0 6.932.116 6.24.35 5.62M13.75 10.079c.117.203.267.368.452.497.184.13.396.224.635.286.24.061.488.092.746.092.184 0 .378-.021.58-.065.203-.043.387-.11.553-.202.166-.092.304-.215.414-.369a.968.968 0 0 0 .166-.58c0-.393-.26-.688-.783-.884-.522-.196-1.25-.393-2.182-.59a12.77 12.77 0 0 1-1.115-.303 3.783 3.783 0 0 1-.967-.46c-.283-.19-.51-.43-.681-.72-.173-.288-.258-.64-.258-1.058 0-.614.12-1.118.359-1.51.24-.394.555-.704.948-.931a4.155 4.155 0 0 1 1.327-.479c.49-.092.994-.138 1.51-.138s1.016.049 1.501.147c.485.098.918.265 1.299.498.38.233.697.543.949.93.251.387.402.875.45 1.464h-2.486c-.037-.503-.227-.844-.57-1.022-.345-.178-.75-.267-1.217-.267-.147 0-.307.009-.478.027a1.595 1.595 0 0 0-.47.12.97.97 0 0 0-.36.267c-.098.117-.147.274-.147.47 0 .234.086.424.258.571.172.147.396.267.672.36.277.091.593.174.949.248.356.074.719.153 1.087.24.38.085.752.19 1.114.312.362.123.685.286.967.489.283.202.51.454.682.755.172.3.258.672.258 1.114 0 .626-.126 1.151-.378 1.575-.252.424-.58.765-.985 1.022-.406.258-.87.44-1.391.544a8.123 8.123 0 0 1-3.214-.01 4.274 4.274 0 0 1-1.41-.552 3.156 3.156 0 0 1-1.013-1.022c-.264-.424-.408-.955-.432-1.594h2.486c0 .283.058.525.175.728M35.983 5.152c-.313-.344-.79-.516-1.428-.516-.417 0-.764.07-1.04.212a1.979 1.979 0 0 0-.663.524c-.166.21-.283.43-.35.664a2.989 2.989 0 0 0-.12.626h4.255c-.123-.663-.34-1.167-.654-1.51m-2.957 5.01c.393.38.958.57 1.695.57.528 0 .982-.13 1.363-.395.38-.264.614-.544.7-.838h2.303c-.369 1.142-.934 1.958-1.695 2.45-.762.49-1.682.736-2.763.736-.75 0-1.425-.12-2.026-.359a4.214 4.214 0 0 1-1.529-1.022 4.597 4.597 0 0 1-.967-1.584 5.797 5.797 0 0 1-.34-2.026c0-.713.116-1.376.349-1.99a4.663 4.663 0 0 1 .995-1.593 4.68 4.68 0 0 1 1.538-1.06 4.93 4.93 0 0 1 1.98-.386c.81 0 1.517.157 2.118.47a4.231 4.231 0 0 1 1.483 1.261c.387.528.666 1.13.838 1.806.172.675.233 1.381.184 2.118h-6.87c.037.847.251 1.461.644 1.842M43.23 8.808c.075.362.2.688.379.976.178.289.414.52.709.691.294.172.663.258 1.105.258.442 0 .813-.086 1.114-.258.301-.172.54-.402.719-.691.178-.288.304-.614.377-.976a5.714 5.714 0 0 0 0-2.238 2.867 2.867 0 0 0-.377-.976 2.099 2.099 0 0 0-.719-.691c-.3-.178-.672-.267-1.114-.267-.442 0-.81.089-1.105.267a2.123 2.123 0 0 0-.71.69 2.862 2.862 0 0 0-.377.977 5.713 5.713 0 0 0 0 2.238m-2.376-3.187c.233-.62.565-1.148.995-1.584.43-.436.945-.773 1.547-1.013.601-.24 1.277-.36 2.026-.36.749 0 1.427.12 2.035.36a4.44 4.44 0 0 1 1.557 1.013c.43.436.761.964.994 1.584.233.62.35 1.311.35 2.073 0 .761-.117 1.449-.35 2.063a4.472 4.472 0 0 1-.994 1.574c-.43.436-.949.771-1.557 1.004-.608.234-1.286.35-2.035.35-.75 0-1.425-.116-2.026-.35a4.342 4.342 0 0 1-1.547-1.004 4.469 4.469 0 0 1-.995-1.574c-.234-.614-.35-1.302-.35-2.063 0-.762.116-1.453.35-2.073M54.54 2.923v1.326h.056c.332-.553.761-.955 1.29-1.206a3.728 3.728 0 0 1 1.62-.378c.7 0 1.274.095 1.722.285.449.191.802.455 1.06.793.258.337.439.749.543 1.233.104.486.156 1.023.156 1.612v5.858h-2.615V7.067c0-.786-.123-1.372-.369-1.759-.245-.387-.68-.58-1.307-.58-.712 0-1.228.212-1.547.635-.32.424-.48 1.121-.48 2.091v4.992h-2.615V2.923h2.487zM25.94 8.187v1.339c0 .442.12.746.266.894.148.147.443.22.885.22.147 0 .288-.006.423-.018.135-.012.264-.03.387-.055v2.026a6.334 6.334 0 0 1-.737.074c-.27.012-.534.018-.792.018-.405 0-.789-.027-1.151-.083a2.713 2.713 0 0 1-.958-.322 1.709 1.709 0 0 1-.654-.682c-.16-.294-.24-.681-.24-1.16l.012-1.74 2.558-.511z" fill="#000"/><path d="M28.497 2.558H25.94V0h-2.558v2.558h-2.559v2.559h2.559v2.302l2.558-.511V5.117h2.558V2.558z" fill="#D92F2F"/></g></svg>