<svg width="120" height="16" viewBox="0 0 120 16" xmlns="http://www.w3.org/2000/svg" xmlns:xlink="http://www.w3.org/1999/xlink"><title>Letter</title><defs><path id="a" d="M0 0h119.848v15.35H0V0z"/></defs><g fill="none" fill-rule="evenodd"><path d="M73.913 6.763v-.134c.086-.04.212-.077.378-.11V3.788a1.505 1.505 0 0 1-.378-.115v-.134h1.165v.134a2.27 2.27 0 0 1-.345.115v2.735h1.377V3.788a1.975 1.975 0 0 1-.17-.046 1.367 1.367 0 0 1-.176-.07V3.54h1.165v.134c-.122.052-.248.09-.377.115v2.735h.53c0 .062-.004.133-.01.214a8.64 8.64 0 0 1-.088.721h-.117l-.2-.695h-2.754zM78.408 4.608c-.176 0-.309.059-.4.177-.093.118-.149.326-.167.624h1.013a1.322 1.322 0 0 0 .01-.157c0-.196-.037-.353-.11-.47-.075-.116-.19-.174-.346-.174zm.842 1.832a.463.463 0 0 1-.115.148.839.839 0 0 1-.18.12 1.073 1.073 0 0 1-.465.11c-.18 0-.34-.029-.479-.085a.907.907 0 0 1-.345-.244 1.079 1.079 0 0 1-.21-.38 1.622 1.622 0 0 1-.07-.498c0-.393.09-.692.27-.898.182-.205.438-.308.77-.308.107 0 .213.014.318.044a.74.74 0 0 1 .278.145.735.735 0 0 1 .199.27c.05.111.075.25.075.416a1.762 1.762 0 0 1-.032.331h-1.437c0 .13.017.25.049.362.032.112.08.21.145.292a.68.68 0 0 0 .244.196.784.784 0 0 0 .345.071c.108 0 .217-.015.327-.046.11-.03.193-.07.249-.12l.064.074zM80.729 6.763h-.99v-.116a.753.753 0 0 1 .142-.062 4.28 4.28 0 0 1 .161-.048V4.69a4.28 4.28 0 0 1-.16-.048.737.737 0 0 1-.143-.062v-.12h.99v.12c-.07.043-.161.08-.272.11v.806h1.022V4.69a.654.654 0 0 1-.276-.11v-.12h.995v.12a.848.848 0 0 1-.304.11v1.847c.055.012.108.026.16.041.053.016.1.039.144.07v.115h-.995v-.116a.654.654 0 0 1 .276-.11v-.838h-1.022v.838a.799.799 0 0 1 .157.046c.043.018.08.04.115.064v.116zM84.077 6.763h-1.023v-.116c.095-.049.196-.085.304-.11V4.663h-.437l-.198.552h-.117a8.912 8.912 0 0 1-.054-.755h2.026c-.003.11-.008.231-.015.362-.008.13-.02.262-.039.393h-.116l-.198-.552h-.437v1.874c.144.037.245.074.304.11v.116zM86.162 4.69c-.15 0-.27.048-.359.143a.82.82 0 0 0-.189.392v1.289a.66.66 0 0 0 .187.076c.069.017.159.025.27.025a.496.496 0 0 0 .273-.078.655.655 0 0 0 .208-.221c.056-.095.1-.206.13-.334a1.8 1.8 0 0 0 .047-.421c0-.126-.01-.242-.03-.348a.895.895 0 0 0-.097-.276.485.485 0 0 0-.175-.182.509.509 0 0 0-.265-.065zm-.244 2.993h-1.022V7.57c.104-.05.206-.087.304-.111v-2.73l-.304-.038v-.12c.099-.043.199-.077.302-.103.103-.026.203-.047.301-.062h.115v.515h.005a.922.922 0 0 1 .258-.375.645.645 0 0 1 .433-.14c.273 0 .485.09.636.271.15.182.225.476.225.885 0 .193-.025.368-.076.525-.05.156-.123.288-.217.396a.95.95 0 0 1-.34.248 1.103 1.103 0 0 1-.445.088c-.113 0-.202-.007-.266-.021a1.092 1.092 0 0 1-.213-.071v.732a.775.775 0 0 1 .304.11v.115zM89.98 4.69c-.15 0-.27.048-.36.143a.82.82 0 0 0-.188.392v1.289a.66.66 0 0 0 .186.076c.07.017.16.025.27.025a.496.496 0 0 0 .274-.078.655.655 0 0 0 .207-.221c.057-.095.1-.206.131-.334a1.8 1.8 0 0 0 .046-.421c0-.126-.01-.242-.03-.348a.895.895 0 0 0-.096-.276.485.485 0 0 0-.175-.182.509.509 0 0 0-.265-.065zm-.244 2.993h-1.022V7.57c.104-.05.205-.087.303-.111v-2.73l-.303-.038v-.12c.098-.043.198-.077.301-.103.103-.026.204-.047.302-.062h.115v.515h.005a.922.922 0 0 1 .257-.375.645.645 0 0 1 .433-.14c.274 0 .485.09.636.271.15.182.225.476.225.885 0 .193-.025.368-.075.525-.051.156-.123.288-.217.396a.95.95 0 0 1-.34.248 1.103 1.103 0 0 1-.445.088c-.114 0-.203-.007-.267-.021a1.092 1.092 0 0 1-.212-.071v.732a.775.775 0 0 1 .304.11v.115zM92.435 4.608c-.176 0-.309.059-.401.177-.092.118-.148.326-.166.624h1.013a1.322 1.322 0 0 0 .01-.157c0-.196-.037-.353-.111-.47-.074-.116-.19-.174-.345-.174zm.842 1.832a.463.463 0 0 1-.115.148.839.839 0 0 1-.18.12 1.073 1.073 0 0 1-.465.11c-.18 0-.34-.029-.479-.085a.907.907 0 0 1-.345-.244 1.079 1.079 0 0 1-.21-.38 1.622 1.622 0 0 1-.07-.498c0-.393.09-.692.27-.898.182-.205.438-.308.77-.308.107 0 .213.014.317.044a.74.74 0 0 1 .28.145.735.735 0 0 1 .197.27c.051.111.076.25.076.416a1.762 1.762 0 0 1-.032.331h-1.437c0 .13.016.25.049.362.032.112.08.21.145.292a.68.68 0 0 0 .244.196.784.784 0 0 0 .345.071c.108 0 .217-.015.327-.046.11-.03.193-.07.249-.12l.064.074zM94.585 6.532a.43.43 0 0 0 .203-.046.545.545 0 0 0 .147-.11.684.684 0 0 0 .147-.244v-.484c-.178 0-.324.01-.437.028a.747.747 0 0 0-.268.087.32.32 0 0 0-.133.15.533.533 0 0 0-.037.205c0 .132.034.234.102.306a.36.36 0 0 0 .276.108m.889-.373c0 .068.001.126.004.175l.01.157.317.046v.097a1.96 1.96 0 0 1-.525.175h-.115a.692.692 0 0 1-.055-.233 6.22 6.22 0 0 1-.014-.279h-.023a.649.649 0 0 1-.41.475.703.703 0 0 1-.263.046.633.633 0 0 1-.458-.17.59.59 0 0 1-.177-.447.64.64 0 0 1 .085-.348.577.577 0 0 1 .251-.214c.11-.052.247-.09.41-.113a7.02 7.02 0 0 1 .567-.053c.012-.132.016-.25.011-.357a.851.851 0 0 0-.05-.271.38.38 0 0 0-.13-.175.37.37 0 0 0-.223-.062c-.043 0-.091.002-.145.006a.535.535 0 0 0-.159.04l-.216.552h-.12a3.132 3.132 0 0 1-.08-.286 1.743 1.743 0 0 1-.044-.29c.116-.07.246-.125.389-.165.142-.04.301-.06.477-.06.156 0 .281.022.375.067a.534.534 0 0 1 .31.407c.016.086.023.172.023.258 0 .184-.003.361-.01.532-.009.17-.012.334-.012.49M96.579 5.559c0 .193.017.356.053.489a.975.975 0 0 0 .145.326.563.563 0 0 0 .47.241.451.451 0 0 0 .416-.248c.094-.165.14-.4.14-.707 0-.312-.06-.54-.179-.685a.61.61 0 0 0-.758-.142.72.72 0 0 0-.237.198 2.636 2.636 0 0 0-.05.528m-.433-.003c0-.393.032-.722.097-.988.064-.265.162-.479.293-.64.13-.161.296-.275.496-.343.2-.067.434-.101.702-.101l.3-.23h.12a1.9 1.9 0 0 1-.053.356 2.162 2.162 0 0 1-.042.15.707.707 0 0 1-.035.092c-.283 0-.523.014-.72.042-.197.027-.36.084-.49.17a.79.79 0 0 0-.293.373c-.066.163-.11.378-.13.645h.022a1.088 1.088 0 0 1 .367-.424c.081-.055.168-.1.26-.133a.812.812 0 0 1 .282-.051c.628 0 .942.376.942 1.128 0 .178-.025.342-.074.49-.049.15-.121.278-.217.385a.995.995 0 0 1-.346.251c-.135.06-.287.09-.457.09-.153 0-.294-.029-.42-.085a.882.882 0 0 1-.323-.249 1.184 1.184 0 0 1-.207-.396 1.751 1.751 0 0 1-.074-.532M98.674 4.46h.976v.12a1.66 1.66 0 0 1-.276.11v1.262l-.05.428h.022l.18-.345.985-1.575h.622v.12a.956.956 0 0 1-.304.11v1.847c.058.015.113.031.166.048a.642.642 0 0 1 .138.062v.116h-.976v-.116a1.08 1.08 0 0 1 .276-.11V5.22l.046-.364h-.023l-.175.346-.976 1.56h-.631v-.115c.052-.024.103-.045.152-.062.05-.017.1-.033.152-.048V4.69a.746.746 0 0 1-.304-.11v-.12zM101.833 6.367c.043-.074.081-.172.115-.295s.062-.258.085-.405a5.92 5.92 0 0 0 .072-.93.866.866 0 0 1-.168-.07 1.326 1.326 0 0 1-.14-.087v-.12h1.883v.12a.966.966 0 0 1-.304.11v1.847a1.091 1.091 0 0 1 .304.11v.116h-.99v-.116a.701.701 0 0 1 .271-.11V4.663h-.608a8.185 8.185 0 0 1-.027.518 6.247 6.247 0 0 1-.07.539c-.03.176-.07.342-.12.497-.048.155-.108.285-.179.39a.526.526 0 0 1-.189.186.279.279 0 0 1-.188.034.918.918 0 0 1-.203-.437l.065-.116.391.093zM104.085 4.46h.976v.12a1.66 1.66 0 0 1-.276.11v1.262l-.05.428h.022l.18-.345.985-1.575h.622v.12a.956.956 0 0 1-.304.11v1.847c.058.015.113.031.166.048a.642.642 0 0 1 .138.062v.116h-.976v-.116a1.08 1.08 0 0 1 .276-.11V5.22l.046-.364h-.023l-.175.346-.976 1.56h-.631v-.115c.052-.024.103-.045.152-.062.05-.017.1-.033.152-.048V4.69a.746.746 0 0 1-.304-.11v-.12zM108.423 6.763H107.4v-.116c.096-.049.197-.085.304-.11V4.663h-.437l-.198.552h-.117a8.912 8.912 0 0 1-.054-.755h2.027c-.003.11-.009.231-.016.362-.008.13-.02.262-.038.393h-.117l-.198-.552h-.437v1.874c.144.037.245.074.304.11v.116zM110.1 6.532a.43.43 0 0 0 .202-.046.545.545 0 0 0 .147-.11.684.684 0 0 0 .147-.244v-.484c-.178 0-.323.01-.437.028a.747.747 0 0 0-.267.087.32.32 0 0 0-.134.15.533.533 0 0 0-.037.205c0 .132.034.234.102.306a.36.36 0 0 0 .276.108m.889-.373c0 .068.001.126.004.175l.01.157.317.046v.097a1.96 1.96 0 0 1-.525.175h-.115a.692.692 0 0 1-.055-.233 6.219 6.219 0 0 1-.014-.279h-.023a.649.649 0 0 1-.41.475.703.703 0 0 1-.262.046.633.633 0 0 1-.459-.17.59.59 0 0 1-.177-.447.64.64 0 0 1 .086-.348.577.577 0 0 1 .25-.214c.111-.052.247-.09.41-.113a7.02 7.02 0 0 1 .567-.053c.012-.132.016-.25.011-.357a.851.851 0 0 0-.05-.271.38.38 0 0 0-.13-.175.37.37 0 0 0-.223-.062c-.043 0-.091.002-.145.006a.535.535 0 0 0-.159.04l-.216.552h-.12a3.132 3.132 0 0 1-.08-.286 1.743 1.743 0 0 1-.044-.29c.116-.07.246-.125.39-.165.142-.04.3-.06.476-.06.156 0 .281.022.375.067a.534.534 0 0 1 .31.407c.016.086.024.172.024.258 0 .184-.004.361-.012.532-.008.17-.011.334-.011.49M111.65 6.763v-.116a.981.981 0 0 1 .304-.11V4.69a.779.779 0 0 1-.303-.11v-.12h.99v.12c-.07.043-.161.08-.272.11v1.87h.972V4.69a1.014 1.014 0 0 1-.272-.11v-.12h.99v.12c-.04.021-.084.041-.133.06-.05.018-.106.035-.17.05v1.87h.41l-.021.442a15.08 15.08 0 0 1-.03.442h-.114l-.204-.681h-2.146zM114.524 4.46h.976v.12a1.66 1.66 0 0 1-.276.11v1.262l-.05.428h.023l.18-.345.985-1.575h.622v.12a.956.956 0 0 1-.304.11v1.847c.058.015.113.031.165.048a.642.642 0 0 1 .139.062v.116h-.977v-.116a1.08 1.08 0 0 1 .277-.11V5.22l.046-.364h-.023l-.175.346-.977 1.56h-.63v-.115c.052-.024.102-.045.151-.062.05-.017.1-.033.152-.048V4.69a.746.746 0 0 1-.304-.11v-.12zM117.389 4.46h.976v.12a1.66 1.66 0 0 1-.276.11v1.262l-.051.428h.023l.18-.345.985-1.575h.622v.12a.956.956 0 0 1-.304.11v1.847c.058.015.113.031.165.048a.642.642 0 0 1 .139.062v.116h-.977v-.116a1.08 1.08 0 0 1 .277-.11V5.22l.046-.364h-.023l-.175.346-.977 1.56h-.63v-.115c.052-.024.102-.045.152-.062.049-.017.099-.033.151-.048V4.69a.746.746 0 0 1-.303-.11v-.12zM74.95 10.856h-.99v-.115a.753.753 0 0 1 .142-.062 4.28 4.28 0 0 1 .161-.049V8.784a4.28 4.28 0 0 1-.161-.049.737.737 0 0 1-.143-.062v-.12h.99v.12c-.07.043-.16.08-.271.11v.807H75.7v-.806a.654.654 0 0 1-.276-.11v-.12h.994v.12a.848.848 0 0 1-.303.11v1.846c.055.013.108.026.16.042.053.015.1.038.143.069v.115h-.994v-.115a.654.654 0 0 1 .276-.11v-.839h-1.022v.838a.799.799 0 0 1 .156.046c.043.019.081.04.115.065v.115zM77.275 9.705c0 .138.013.268.04.391.025.123.067.23.124.32a.62.62 0 0 0 .223.214.663.663 0 0 0 .332.079c.165 0 .301-.082.407-.244.106-.163.159-.416.159-.76 0-.142-.013-.273-.04-.394a1.022 1.022 0 0 0-.121-.318.583.583 0 0 0-.52-.292.507.507 0 0 0-.438.244c-.11.163-.166.416-.166.76m-.442 0c0-.194.025-.365.076-.514.05-.149.123-.275.219-.377a.94.94 0 0 1 .343-.235c.133-.054.281-.08.444-.08.19 0 .355.028.493.087.138.058.25.14.338.246.088.106.152.233.194.38.041.147.062.312.062.493 0 .386-.098.684-.295.893-.196.21-.46.313-.792.313-.184 0-.344-.028-.479-.085a.873.873 0 0 1-.336-.244 1.053 1.053 0 0 1-.2-.382 1.723 1.723 0 0 1-.067-.495M80.135 10.658a.8.8 0 0 0 .163.014h.164c.18 0 .316-.04.405-.118A.422.422 0 0 0 81 10.22c0-.15-.053-.263-.16-.338a.707.707 0 0 0-.415-.113h-.29v.889zm0-1.027l.517-.046a.52.52 0 0 0 .17-.154.477.477 0 0 0 .086-.297c0-.15-.046-.254-.137-.311-.092-.057-.226-.085-.403-.085-.035 0-.074 0-.117.002a.535.535 0 0 0-.116.016v.875zm1.326.552a.578.578 0 0 1-.308.53 1.07 1.07 0 0 1-.326.122c-.124.026-.253.04-.389.04a9.5 9.5 0 0 1-.384-.01 3.725 3.725 0 0 0-.195-.01h-.443v-.114c.095-.05.197-.086.304-.11V8.783a.892.892 0 0 1-.304-.11v-.12h.415a7.902 7.902 0 0 0 .338-.01 6.255 6.255 0 0 1 .292-.01c.272 0 .484.042.635.123.151.081.227.224.227.426 0 .074-.016.14-.047.198a.525.525 0 0 1-.12.152.807.807 0 0 1-.348.17.957.957 0 0 1 .248.05.716.716 0 0 1 .208.114c.06.047.108.106.144.175.035.07.053.15.053.241zM82.345 9.705c0 .138.013.268.039.391.026.123.068.23.125.32a.62.62 0 0 0 .223.214.663.663 0 0 0 .332.079c.165 0 .3-.082.407-.244.106-.163.159-.416.159-.76 0-.142-.013-.273-.04-.394a1.022 1.022 0 0 0-.121-.318.583.583 0 0 0-.52-.292.507.507 0 0 0-.438.244c-.11.163-.166.416-.166.76m-.442 0c0-.194.025-.365.076-.514.05-.149.123-.275.219-.377a.94.94 0 0 1 .343-.235c.133-.054.281-.08.444-.08.19 0 .355.028.493.087.138.058.25.14.338.246.088.106.152.233.194.38.041.147.062.312.062.493 0 .386-.098.684-.295.893-.196.21-.46.313-.792.313-.184 0-.344-.028-.479-.085a.873.873 0 0 1-.336-.244 1.053 1.053 0 0 1-.2-.382 1.723 1.723 0 0 1-.067-.495M86.204 8.553c-.003.12-.009.244-.016.373-.008.13-.021.257-.04.383h-.12l-.202-.553h-.621v1.874c.175.034.313.071.414.11v.116h-1.133v-.115a.746.746 0 0 1 .152-.07c.05-.015.1-.028.152-.04V8.778a.87.87 0 0 1-.304-.106v-.12h1.718zM86.968 9.705c0 .138.013.268.04.391.026.123.067.23.124.32a.62.62 0 0 0 .223.214.663.663 0 0 0 .332.079c.166 0 .301-.082.407-.244.106-.163.16-.416.16-.76 0-.142-.014-.273-.04-.394a1.022 1.022 0 0 0-.122-.318.583.583 0 0 0-.52-.292.507.507 0 0 0-.438.244c-.11.163-.166.416-.166.76m-.442 0c0-.194.026-.365.076-.514.051-.149.124-.275.219-.377a.94.94 0 0 1 .343-.235c.134-.054.282-.08.444-.08.19 0 .355.028.493.087.138.058.251.14.339.246.087.106.152.233.193.38.042.147.062.312.062.493 0 .386-.098.684-.294.893-.197.21-.461.313-.793.313-.184 0-.343-.028-.478-.085a.873.873 0 0 1-.337-.244 1.053 1.053 0 0 1-.2-.382 1.723 1.723 0 0 1-.067-.495M91.265 10.856h-.99v-.115a.778.778 0 0 1 .304-.11V8.783a1.73 1.73 0 0 1-.175-.051.637.637 0 0 1-.13-.06v-.12h2.455v.12c-.04.025-.084.048-.133.07a.555.555 0 0 1-.17.04v1.847a.958.958 0 0 1 .303.11v.116h-.99v-.115a.643.643 0 0 1 .108-.06.905.905 0 0 1 .164-.05V8.755h-1.018v1.874a1.49 1.49 0 0 1 .272.11v.116zM93.586 9.705c0 .138.013.268.039.391.026.123.067.23.124.32a.62.62 0 0 0 .223.214.663.663 0 0 0 .332.079c.166 0 .302-.082.407-.244.106-.163.16-.416.16-.76 0-.142-.014-.273-.04-.394a1.022 1.022 0 0 0-.122-.318.583.583 0 0 0-.52-.292.507.507 0 0 0-.438.244c-.11.163-.165.416-.165.76m-.443 0c0-.194.026-.365.076-.514.051-.149.124-.275.22-.377a.94.94 0 0 1 .343-.235c.133-.054.281-.08.444-.08.19 0 .354.028.492.087.139.058.251.14.339.246.087.106.152.233.193.38.042.147.062.312.062.493 0 .386-.098.684-.294.893-.197.21-.46.313-.792.313-.185 0-.344-.028-.48-.085a.873.873 0 0 1-.335-.244 1.053 1.053 0 0 1-.2-.382 1.723 1.723 0 0 1-.068-.495M97.044 8.553h.889v.12a.436.436 0 0 1-.122.065c-.05.018-.113.04-.187.064a12.067 12.067 0 0 1-.7.77c.068.073.139.154.214.243l.228.276c.077.096.154.19.23.281.077.093.152.178.226.258l.217.11v.116h-.54l-.147-.106a6.646 6.646 0 0 1-.377-.497 20.39 20.39 0 0 0-.345-.488h-.185v.865c.062.016.118.032.168.049.051.017.095.037.132.062v.115h-1.018v-.115a.979.979 0 0 1 .304-.11V8.783a1.06 1.06 0 0 1-.304-.11v-.12h.944v.12a.757.757 0 0 1-.226.11v.86l.212-.045c.123-.141.24-.273.35-.396.11-.123.213-.257.309-.4a3.982 3.982 0 0 1-.146-.063 1.1 1.1 0 0 1-.126-.067v-.12zM98.715 9.705c0 .138.014.268.04.391.026.123.067.23.124.32a.62.62 0 0 0 .223.214.663.663 0 0 0 .332.079c.166 0 .302-.082.407-.244.106-.163.16-.416.16-.76 0-.142-.014-.273-.04-.394a1.022 1.022 0 0 0-.122-.318.583.583 0 0 0-.52-.292.507.507 0 0 0-.438.244c-.11.163-.166.416-.166.76m-.442 0c0-.194.026-.365.076-.514.051-.149.124-.275.22-.377a.94.94 0 0 1 .342-.235c.134-.054.282-.08.445-.08.19 0 .354.028.492.087.138.058.251.14.339.246.087.106.152.233.193.38.042.147.062.312.062.493 0 .386-.098.684-.294.893-.197.21-.46.313-.792.313-.185 0-.344-.028-.48-.085a.873.873 0 0 1-.335-.244 1.053 1.053 0 0 1-.2-.382 1.723 1.723 0 0 1-.068-.495M101.151 10.46c.043-.074.082-.172.116-.295.033-.123.062-.258.085-.405a5.92 5.92 0 0 0 .071-.93.866.866 0 0 1-.168-.07 1.326 1.326 0 0 1-.14-.087v-.12h1.883v.12a.966.966 0 0 1-.304.11v1.847c.065.016.121.033.17.051.05.018.094.038.134.06v.115h-.99v-.115a.701.701 0 0 1 .272-.11V8.755h-.608a8.185 8.185 0 0 1-.028.518 6.247 6.247 0 0 1-.069.539c-.03.176-.07.342-.12.497-.049.155-.108.285-.18.39a.526.526 0 0 1-.188.186.279.279 0 0 1-.189.034.918.918 0 0 1-.202-.437l.064-.115.391.092zM104.435 8.7c-.175 0-.309.06-.4.178-.093.118-.148.326-.167.624h1.014a1.322 1.322 0 0 0 .009-.156c0-.197-.037-.354-.11-.47-.074-.117-.19-.175-.346-.175zm.843 1.834a.463.463 0 0 1-.115.147.839.839 0 0 1-.18.12 1.073 1.073 0 0 1-.465.11c-.181 0-.341-.028-.48-.085a.907.907 0 0 1-.344-.244 1.079 1.079 0 0 1-.21-.38 1.622 1.622 0 0 1-.071-.497c0-.393.09-.693.271-.898.181-.206.438-.309.77-.309.107 0 .213.015.317.044a.74.74 0 0 1 .279.145.735.735 0 0 1 .198.27c.05.111.076.25.076.416a1.762 1.762 0 0 1-.032.332h-1.437c0 .129.016.249.048.361.032.112.08.21.145.292a.68.68 0 0 0 .244.196.784.784 0 0 0 .346.071c.107 0 .216-.015.326-.045.111-.031.194-.07.25-.12l.064.074zM106.756 10.856h-.99v-.115a.753.753 0 0 1 .142-.062 4.28 4.28 0 0 1 .162-.049V8.784a4.28 4.28 0 0 1-.162-.049.737.737 0 0 1-.142-.062v-.12h.99v.12c-.07.043-.161.08-.272.11v.807h1.023v-.806a.654.654 0 0 1-.277-.11v-.12h.995v.12a.848.848 0 0 1-.304.11v1.846c.055.013.109.026.161.042.052.015.1.038.143.069v.115h-.995v-.115a.654.654 0 0 1 .277-.11v-.839h-1.023v.838a.799.799 0 0 1 .157.046c.043.019.081.04.115.065v.115zM108.63 8.553h.976v.12a1.66 1.66 0 0 1-.276.11v1.262l-.05.429h.022l.18-.346.985-1.575h.622v.12a.956.956 0 0 1-.304.11v1.847c.058.016.114.032.166.049a.642.642 0 0 1 .138.062v.115h-.976v-.115a1.08 1.08 0 0 1 .276-.11V9.312l.046-.364h-.023l-.175.346-.976 1.56h-.631v-.114c.052-.025.103-.045.152-.062l.152-.049V8.784a.746.746 0 0 1-.304-.11v-.12zM112.858 8.756a3.187 3.187 0 0 0-.314-.028c-.19-.003-.321.041-.394.132a.557.557 0 0 0-.108.357c0 .15.056.274.169.37.111.097.286.145.522.145h.125v-.976zm-1.248.474c0-.104.016-.2.05-.285a.551.551 0 0 1 .159-.221.788.788 0 0 1 .276-.145c.112-.036.248-.053.408-.053.037 0 .088.001.154.004l.21.01.214.009c.069.003.123.004.163.004h.332v.12a.378.378 0 0 1-.104.06.995.995 0 0 1-.2.05v1.847c.113.034.215.071.304.11v.116h-.99v-.115a.745.745 0 0 1 .126-.062c.045-.017.093-.033.146-.049v-.778l-.337.046a7.779 7.779 0 0 0-.216.39c-.08.151-.189.305-.327.462l-.143.106h-.52v-.115l.258-.11c.138-.145.255-.288.35-.429a6.51 6.51 0 0 1 .258-.36.914.914 0 0 1-.208-.061.62.62 0 0 1-.313-.302.574.574 0 0 1-.05-.249zM2.726 8.808c.074.362.2.688.378.976.178.289.414.52.709.691.294.172.663.258 1.105.258.442 0 .814-.086 1.115-.258.3-.172.54-.402.718-.691.178-.288.304-.614.377-.976a5.714 5.714 0 0 0 0-2.238 2.867 2.867 0 0 0-.377-.976 2.099 2.099 0 0 0-.718-.691c-.301-.178-.673-.267-1.115-.267-.442 0-.81.089-1.105.267a2.123 2.123 0 0 0-.71.69 2.862 2.862 0 0 0-.377.977 5.713 5.713 0 0 0 0 2.238M.35 5.621c.233-.62.565-1.148.995-1.584.43-.436.945-.773 1.547-1.013.601-.24 1.277-.36 2.026-.36.749 0 1.428.12 2.035.36A4.44 4.44 0 0 1 8.51 4.037c.43.436.761.964.995 1.584.233.62.35 1.311.35 2.073 0 .761-.117 1.449-.35 2.063a4.472 4.472 0 0 1-.995 1.574c-.43.436-.949.771-1.557 1.004-.607.234-1.286.35-2.035.35-.75 0-1.425-.116-2.026-.35a4.342 4.342 0 0 1-1.547-1.004A4.469 4.469 0 0 1 .35 9.757C.116 9.143 0 8.455 0 7.694 0 6.932.116 6.24.35 5.62M13.75 10.079c.117.203.267.368.452.497.184.13.396.224.635.286.24.061.488.092.746.092.184 0 .378-.021.58-.065.203-.043.387-.11.553-.202.166-.092.304-.215.414-.369a.968.968 0 0 0 .166-.58c0-.393-.26-.688-.783-.884-.522-.196-1.25-.393-2.182-.59a12.77 12.77 0 0 1-1.115-.303 3.783 3.783 0 0 1-.967-.46c-.283-.19-.51-.43-.681-.72-.173-.288-.258-.64-.258-1.058 0-.614.12-1.118.359-1.51.24-.394.555-.704.948-.931a4.155 4.155 0 0 1 1.327-.479c.49-.092.994-.138 1.51-.138s1.016.049 1.501.147c.485.098.918.265 1.299.498.38.233.697.543.949.93.251.387.402.875.45 1.464h-2.486c-.037-.503-.227-.844-.57-1.022-.345-.178-.75-.267-1.217-.267-.147 0-.307.009-.478.027a1.595 1.595 0 0 0-.47.12.97.97 0 0 0-.36.267c-.098.117-.147.274-.147.47 0 .234.086.424.258.571.172.147.396.267.672.36.277.091.593.174.949.248.356.074.719.153 1.087.24.38.085.752.19 1.114.312.362.123.685.286.967.489.283.202.51.454.682.755.172.3.258.672.258 1.114 0 .626-.126 1.151-.378 1.575-.252.424-.58.765-.985 1.022-.406.258-.87.44-1.391.544a8.123 8.123 0 0 1-3.214-.01 4.274 4.274 0 0 1-1.41-.552 3.156 3.156 0 0 1-1.013-1.022c-.264-.424-.408-.955-.432-1.594h2.486c0 .283.058.525.175.728M35.983 5.152c-.313-.344-.79-.516-1.428-.516-.417 0-.764.07-1.04.212a1.979 1.979 0 0 0-.663.524c-.166.21-.283.43-.35.664a2.989 2.989 0 0 0-.12.626h4.255c-.123-.663-.34-1.167-.654-1.51m-2.957 5.01c.393.38.958.57 1.695.57.528 0 .982-.13 1.363-.395.38-.264.614-.544.7-.838h2.303c-.369 1.142-.934 1.958-1.695 2.45-.762.49-1.682.736-2.763.736-.75 0-1.425-.12-2.026-.359a4.214 4.214 0 0 1-1.529-1.022 4.597 4.597 0 0 1-.967-1.584 5.797 5.797 0 0 1-.34-2.026c0-.713.116-1.376.349-1.99a4.663 4.663 0 0 1 .995-1.593 4.68 4.68 0 0 1 1.538-1.06 4.93 4.93 0 0 1 1.98-.386c.81 0 1.517.157 2.118.47a4.231 4.231 0 0 1 1.483 1.261c.387.528.666 1.13.838 1.806.172.675.233 1.381.184 2.118h-6.87c.037.847.251 1.461.644 1.842M43.23 8.808c.075.362.2.688.379.976.178.289.414.52.709.691.294.172.663.258 1.105.258.442 0 .813-.086 1.114-.258.301-.172.54-.402.719-.691.178-.288.304-.614.377-.976a5.714 5.714 0 0 0 0-2.238 2.867 2.867 0 0 0-.377-.976 2.099 2.099 0 0 0-.719-.691c-.3-.178-.672-.267-1.114-.267-.442 0-.81.089-1.105.267a2.123 2.123 0 0 0-.71.69 2.862 2.862 0 0 0-.377.977 5.713 5.713 0 0 0 0 2.238m-2.376-3.187c.233-.62.565-1.148.995-1.584.43-.436.945-.773 1.547-1.013.601-.24 1.277-.36 2.026-.36.749 0 1.427.12 2.035.36a4.44 4.44 0 0 1 1.557 1.013c.43.436.761.964.994 1.584.233.62.35 1.311.35 2.073 0 .761-.117 1.449-.35 2.063a4.472 4.472 0 0 1-.994 1.574c-.43.436-.949.771-1.557 1.004-.608.234-1.286.35-2.035.35-.75 0-1.425-.116-2.026-.35a4.342 4.342 0 0 1-1.547-1.004 4.469 4.469 0 0 1-.995-1.574c-.234-.614-.35-1.302-.35-2.063 0-.762.116-1.453.35-2.073M54.54 2.923v1.326h.056c.332-.553.761-.955 1.29-1.206a3.728 3.728 0 0 1 1.62-.378c.7 0 1.274.095 1.722.285.449.191.802.455 1.06.793.258.337.439.749.543 1.233.104.486.156 1.023.156 1.612v5.858h-2.615V7.067c0-.786-.123-1.372-.369-1.759-.245-.387-.68-.58-1.307-.58-.712 0-1.228.212-1.547.635-.32.424-.48 1.121-.48 2.091v4.992h-2.615V2.923h2.487z" fill="#000"/><mask id="b" fill="#fff"><use xlink:href="#a"/></mask><path d="M68.663 0h-2.558v15.35h2.558V0z" fill="#D92F2F" mask="url(#b)"/><path d="M25.94 8.187v1.339c0 .442.12.746.266.894.148.147.443.22.885.22.147 0 .288-.006.423-.018.135-.012.264-.03.387-.055v2.026a6.334 6.334 0 0 1-.737.074c-.27.012-.534.018-.792.018-.405 0-.789-.027-1.151-.083a2.713 2.713 0 0 1-.958-.322 1.709 1.709 0 0 1-.654-.682c-.16-.294-.24-.681-.24-1.16l.012-1.74 2.558-.511z" fill="#000" mask="url(#b)"/><path d="M28.497 2.558H25.94V0h-2.558v2.558h-2.559v2.559h2.559v2.302l2.558-.511V5.117h2.558V2.558z" fill="#D92F2F" mask="url(#b)"/></g></svg>