<svg width="63" height="41" viewBox="0 0 63 41" xmlns="http://www.w3.org/2000/svg" xmlns:xlink="http://www.w3.org/1999/xlink" style="background:#fff"><title>Logos</title><defs><path id="a" d="M0 19.997h19.998V.002H0z"/><path id="c" d="M0 19.997h19.998V.002H0z"/><path id="e" d="M0 19.998h19.994V.006H0z"/><path id="g" d="M19.994 19.998V.006H0v19.992z"/><linearGradient x1="0%" y1="50%" y2="50%" id="h"><stop stop-color="#F15F79" offset="0%"/><stop stop-color="#B24592" offset="100%"/></linearGradient><radialGradient cx="0%" fx="0%" fy="50%" r="100%" id="j"><stop stop-color="#F15F79" offset="0%"/><stop stop-color="#B24592" offset="100%"/></radialGradient></defs><g fill="none" fill-rule="evenodd"><path d="M18.795 19.812c.603 0 1.091-.488 1.091-1.09V1.131c0-.603-.488-1.091-1.09-1.091H1.205C.603.041.115.529.115 1.132v17.59c0 .602.488 1.09 1.091 1.09h17.59" fill="#ADADAD"/><path d="M13.757 19.812v-7.656h2.57l.385-2.984h-2.955V7.267c0-.864.24-1.453 1.479-1.453h1.58v-2.67a21.148 21.148 0 0 0-2.303-.117c-2.278 0-3.837 1.39-3.837 3.944v2.2H8.099v2.985h2.577v7.656h3.081" fill="#FFF"/><g transform="translate(42)"><mask id="b" fill="#fff"><use xlink:href="#a"/></mask><path d="M3.082.002h13.834a3.082 3.082 0 0 1 3.082 3.082v13.834A3.082 3.082 0 0 1 16.916 20H3.082A3.082 3.082 0 0 1 0 16.918V3.084A3.082 3.082 0 0 1 3.082.002" fill="#ADADAD" mask="url(#b)"/></g><path d="M51.831 14.001h.818s.247-.027.374-.163c.116-.125.112-.36.112-.36s-.016-1.097.493-1.259c.503-.159 1.148 1.061 1.831 1.53.517.355.91.278.91.278L58.196 14s.956-.059.503-.81c-.037-.062-.264-.557-1.359-1.573-1.146-1.064-.992-.891.388-2.731.84-1.12 1.177-1.805 1.072-2.098-.1-.28-.719-.205-.719-.205l-2.057.012s-.153-.02-.266.047c-.11.066-.182.221-.182.221s-.326.867-.76 1.605c-.916 1.556-1.283 1.638-1.432 1.541-.349-.225-.262-.904-.262-1.387 0-1.508.229-2.137-.445-2.3-.224-.054-.389-.09-.96-.095-.735-.008-1.356.002-1.708.175-.234.114-.415.37-.305.384.136.018.444.083.607.306.211.287.204.93.204.93s.121 1.776-.283 1.996c-.277.152-.658-.157-1.475-1.569a13.133 13.133 0 0 1-.735-1.522s-.06-.15-.17-.23a.85.85 0 0 0-.315-.127l-1.956.013s-.293.008-.401.136c-.096.113-.008.348-.008.348s1.531 3.582 3.265 5.387C50.027 14.11 51.83 14 51.83 14" fill="#FFF"/><path d="M18.795 40.812c.603 0 1.091-.488 1.091-1.09v-17.59c0-.603-.488-1.091-1.09-1.091H1.205c-.603 0-1.091.488-1.091 1.091v17.59c0 .602.488 1.09 1.091 1.09h17.59" fill="#395185"/><path d="M13.757 40.812v-7.656h2.57l.385-2.984h-2.955v-1.905c0-.864.24-1.453 1.479-1.453h1.58v-2.67a21.148 21.148 0 0 0-2.303-.117c-2.278 0-3.837 1.39-3.837 3.944v2.2H8.099v2.985h2.577v7.656h3.081" fill="#FFF"/><g><g transform="translate(42 21)"><mask id="d" fill="#fff"><use xlink:href="#c"/></mask><path d="M3.082.002h13.834a3.082 3.082 0 0 1 3.082 3.082v13.834A3.082 3.082 0 0 1 16.916 20H3.082A3.082 3.082 0 0 1 0 16.918V3.084A3.082 3.082 0 0 1 3.082.002" fill="#4B6C91" mask="url(#d)"/></g><path d="M51.831 35.001h.818s.247-.027.374-.163c.116-.125.112-.36.112-.36s-.016-1.097.493-1.259c.503-.159 1.148 1.061 1.831 1.53.517.355.91.278.91.278L58.196 35s.956-.059.503-.81c-.037-.062-.264-.557-1.359-1.573-1.146-1.064-.992-.891.388-2.731.84-1.12 1.177-1.805 1.072-2.098-.1-.28-.719-.205-.719-.205l-2.057.012s-.153-.02-.266.047c-.11.066-.182.221-.182.221s-.326.867-.76 1.605c-.916 1.556-1.283 1.638-1.432 1.541-.349-.225-.262-.904-.262-1.387 0-1.508.229-2.137-.445-2.3-.224-.054-.389-.09-.96-.095-.735-.008-1.356.002-1.708.175-.234.114-.415.37-.305.384.136.018.444.083.607.306.211.287.204.93.204.93s.121 1.776-.283 1.996c-.277.152-.658-.157-1.475-1.569a13.133 13.133 0 0 1-.735-1.522s-.06-.15-.17-.23a.85.85 0 0 0-.315-.127l-1.956.013s-.293.008-.401.136c-.096.113-.008.348-.008.348s1.531 3.582 3.265 5.387C50.027 35.11 51.83 35 51.83 35" fill="#FFF"/></g><g><g transform="translate(21)"><mask id="f" fill="#fff"><use xlink:href="#e"/></mask><path d="M9.997.006c-2.715 0-3.056.012-4.122.06-1.064.049-1.79.218-2.426.465a4.9 4.9 0 0 0-1.771 1.153 4.9 4.9 0 0 0-1.153 1.77C.278 4.092.109 4.818.06 5.882.012 6.948 0 7.288 0 10.003s.012 3.056.06 4.122c.049 1.064.218 1.79.465 2.426a4.9 4.9 0 0 0 1.153 1.771 4.9 4.9 0 0 0 1.77 1.153c.636.247 1.363.416 2.427.465 1.066.048 1.407.06 4.122.06s3.055-.012 4.122-.06c1.064-.049 1.79-.218 2.426-.465a4.9 4.9 0 0 0 1.77-1.153 4.9 4.9 0 0 0 1.154-1.77c.247-.636.416-1.363.465-2.427.048-1.066.06-1.407.06-4.122s-.012-3.055-.06-4.122c-.049-1.064-.218-1.79-.465-2.426a4.9 4.9 0 0 0-1.153-1.77A4.9 4.9 0 0 0 16.546.53c-.637-.247-1.363-.416-2.427-.465-1.067-.048-1.407-.06-4.122-.06zm0 1.802c2.67 0 2.985.01 4.04.058.974.044 1.503.207 1.856.344.466.181.8.398 1.15.748.349.35.566.683.747 1.15.137.352.3.88.344 1.856.048 1.054.058 1.37.058 4.04 0 2.668-.01 2.985-.058 4.039-.044.974-.207 1.504-.344 1.856-.181.467-.398.8-.748 1.15-.35.35-.683.566-1.15.747-.352.137-.88.3-1.856.344-1.054.049-1.37.059-4.04.059-2.669 0-2.985-.01-4.039-.059-.974-.044-1.504-.207-1.856-.344a3.097 3.097 0 0 1-1.15-.748 3.097 3.097 0 0 1-.747-1.149c-.137-.352-.3-.882-.344-1.856-.049-1.054-.059-1.37-.059-4.04s.01-2.985.059-4.04c.044-.974.207-1.503.344-1.856.181-.466.398-.8.748-1.15.35-.349.682-.566 1.149-.747.352-.137.882-.3 1.856-.344 1.054-.048 1.37-.058 4.04-.058z" fill="#ADADAD" mask="url(#f)"/></g><path d="M30.997 13.335a3.332 3.332 0 1 1 0-6.664 3.332 3.332 0 0 1 0 6.664zm0-8.465a5.133 5.133 0 1 0 0 10.267 5.133 5.133 0 0 0 0-10.267zM37.533 4.667a1.2 1.2 0 1 1-2.4 0 1.2 1.2 0 0 1 2.4 0" fill="#ADADAD"/></g><g><g transform="translate(21 21)"><mask id="i" fill="#fff"><use xlink:href="#g"/></mask><path d="M9.997.006c-2.715 0-3.056.012-4.122.06-1.064.049-1.79.218-2.426.465a4.9 4.9 0 0 0-1.771 1.153 4.9 4.9 0 0 0-1.153 1.77C.278 4.092.109 4.818.06 5.882.012 6.948 0 7.288 0 10.003s.012 3.056.06 4.122c.049 1.064.218 1.79.465 2.426a4.9 4.9 0 0 0 1.153 1.771 4.9 4.9 0 0 0 1.77 1.153c.636.247 1.363.416 2.427.465 1.066.048 1.407.06 4.122.06s3.055-.012 4.122-.06c1.064-.049 1.79-.218 2.426-.465a4.9 4.9 0 0 0 1.77-1.153 4.9 4.9 0 0 0 1.154-1.77c.247-.636.416-1.363.465-2.427.048-1.066.06-1.407.06-4.122s-.012-3.055-.06-4.122c-.049-1.064-.218-1.79-.465-2.426a4.9 4.9 0 0 0-1.153-1.77A4.9 4.9 0 0 0 16.546.53c-.637-.247-1.363-.416-2.427-.465-1.067-.048-1.407-.06-4.122-.06zm0 1.802c2.67 0 2.985.01 4.04.058.974.044 1.503.207 1.856.344.466.181.8.398 1.15.748.349.35.566.683.747 1.15.137.352.3.88.344 1.856.048 1.054.058 1.37.058 4.04 0 2.668-.01 2.985-.058 4.039-.044.974-.207 1.504-.344 1.856-.181.467-.398.8-.748 1.15-.35.35-.683.566-1.15.747-.352.137-.88.3-1.856.344-1.054.049-1.37.059-4.04.059-2.669 0-2.985-.01-4.039-.059-.974-.044-1.504-.207-1.856-.344a3.097 3.097 0 0 1-1.15-.748 3.097 3.097 0 0 1-.747-1.149c-.137-.352-.3-.882-.344-1.856-.049-1.054-.059-1.37-.059-4.04s.01-2.985.059-4.04c.044-.974.207-1.503.344-1.856.181-.466.398-.8.748-1.15.35-.349.682-.566 1.149-.747.352-.137.882-.3 1.856-.344 1.054-.048 1.37-.058 4.04-.058z" fill="url(#h)" mask="url(#i)"/></g><path d="M9.997 13.335a3.332 3.332 0 1 1 0-6.664 3.332 3.332 0 0 1 0 6.664zm0-8.465a5.133 5.133 0 1 0 0 10.267 5.133 5.133 0 0 0 0-10.267z" fill="url(#j)" transform="translate(21 21)"/><path d="M16.533 4.667a1.2 1.2 0 1 1-2.4 0 1.2 1.2 0 0 1 2.4 0" fill="url(#h)" transform="translate(21 21)"/></g></g></svg>