<?xml version="1.0" encoding="utf-8"?>
<!-- Generator: Adobe Illustrator 19.1.0, SVG Export Plug-In . SVG Version: 6.00 Build 0)  -->
<svg version="1.1" id="Слой_1" xmlns="http://www.w3.org/2000/svg" xmlns:xlink="http://www.w3.org/1999/xlink" x="0px" y="0px"
	 viewBox="0 0 52.4715271 52.4715271" style="enable-background:new 0 0 52.4715271 52.4715271;" xml:space="preserve">
<style type="text/css">
	.st0{fill:#4DAF50;}
	.st1{fill:#FFFFFF;}
</style>
<path class="st0" d="M46.1522675,51.2357635H6.3192596c-2.8075373,0-5.0834961-2.275959-5.0834961-5.0834961V6.3192596
	c0-2.8075373,2.2759585-5.0834961,5.0834961-5.0834961h39.8330078c2.8075371,0,5.0834961,2.2759585,5.0834961,5.0834961v39.8330078
	C51.2357635,48.9598045,48.9598045,51.2357635,46.1522675,51.2357635z"/>
<g>
	<path class="st1" d="M13.9715271,38.7850494V13.7101192c0-0.663991,0.0553894-1.2408447,0.1654911-1.7312384
		c0.1107779-0.4903946,0.2999105-0.9571466,0.5680733-1.4002571c0.2688389-0.4424353,0.674798-0.7781458,1.2199059-1.0078068
		c0.5444317-0.2289858,1.2192287-0.3438158,2.0237179-0.3438158h6.6534157c2.2729683,0,4.3047924,0.4350052,6.0968246,1.3043394
		c1.7913551,0.8700094,3.2476768,2.0683002,4.3682861,3.5941954c1.1206131,1.5265703,1.9723854,3.2814503,2.5566673,5.2659912
		C38.2081947,21.3767452,38.5,23.5315056,38.5,25.8558102c0,1.6609898-0.1573868,3.2976627-0.4735069,4.9106922
		c-0.3154449,1.6130333-0.8288078,3.1787796-1.5387306,4.6972427c-0.710598,1.5177917-1.582634,2.846447-2.6161079,3.9852943
		c-1.0341492,1.1388512-2.3324108,2.0561409-3.8947811,2.7518806c-1.5630455,0.6957359-3.2909069,1.0436058-5.1849346,1.0436058
		h-6.8432236c-1.5306225,0-2.5762558-0.3992043-3.136899-1.198288
		C14.251173,41.2478256,13.9715271,40.1603127,13.9715271,38.7850494z M18.0993462,38.2392654
		c0,0.5059319,0.0945663,0.8578529,0.2843742,1.0557671s0.5295715,0.2965317,1.0199661,0.2965317h4.8161259
		c1.4542942,0,2.7667408-0.2532997,3.937336-0.7592316c1.1705952-0.505928,2.1351719-1.1820793,2.8944035-2.0284462
		c0.7592335-0.8456917,1.3914757-1.8622818,1.8974075-3.0484123c0.5066032-1.1861305,0.8700104-2.4317055,1.0915642-3.7360458
		c0.2215538-1.3050137,0.3323326-2.6924362,0.3323326-4.1636181c0-1.7704163-0.1979141-3.4192467-0.5930672-4.9458179
		c-0.3958244-1.5258942-0.9888916-2.9058876-1.7791977-4.1393013c-0.7909775-1.2340908-1.8507957-2.2060976-3.1787777-2.918047
		c-1.3286552-0.7119493-2.8626556-1.0672483-4.6020012-1.0672483h-4.8161259c-0.4903946,0-0.8301582,0.1067247-1.0199661,0.3201752
		c-0.1898079,0.2134495-0.2843742,0.5734768-0.2843742,1.0794067V38.2392654z"/>
</g>
</svg>
